<svg id="Layer_1" enable-background="new 0 0 256 256" height="512" viewBox="0 0 256 256" width="512" xmlns="http://www.w3.org/2000/svg"><g><g><path d="m29.619 181.632c-7.724 0-14.009-6.285-14.009-14.009v-126.891c0-7.724 6.285-14.009 14.009-14.009h196.762c7.724 0 14.009 6.285 14.009 14.009v126.892c0 7.724-6.285 14.009-14.009 14.009h-196.762z" fill="#f46275"/><path d="m231.769 155.322c0 2.963-2.425 5.388-5.388 5.388h-196.762c-2.963 0-5.388-2.425-5.388-5.388v-114.591c0-2.963 2.425-5.388 5.388-5.388h196.762c2.963 0 5.388 2.425 5.388 5.388z" fill="#63bce7"/><path d="m33.991 155.322v-114.591c0-2.963 2.425-5.388 5.388-5.388h-9.76c-2.963 0-5.388 2.425-5.388 5.388v114.59c0 2.963 2.425 5.388 5.388 5.388h9.76c-2.964.001-5.388-2.424-5.388-5.387z" fill="#6377e7"/><path d="m222.009 155.322v-114.591c0-2.963-2.425-5.388-5.388-5.388h9.76c2.963 0 5.388 2.425 5.388 5.388v114.59c0 2.963-2.425 5.388-5.388 5.388h-9.76c2.964.001 5.388-2.424 5.388-5.387z" fill="#63e2e7"/><path d="m41 68.868h89.667v52.333h-89.667z" fill="#f8af23"/><path d="m69.208 213.777h-36.977c-4.418 0-8-3.582-8-8v-76.576c0-4.418 3.582-8 8-8h36.977c4.418 0 8 3.582 8 8v76.576c0 4.418-3.582 8-8 8z" fill="#63bce7"/><path d="m33.991 205.777v-76.576c0-4.418 3.582-8 8-8h-9.76c-4.418 0-8 3.582-8 8v76.576c0 4.418 3.582 8 8 8h9.76c-4.419 0-8-3.582-8-8z" fill="#6377e7"/><path d="m88.847 204.348h78.305v9.429h-78.305z" fill="#f46275"/><path d="m99.983 181.632h56.035v22.716h-56.035z" fill="#9e9e9e"/><path d="m88.847 204.348h9.76v9.429h-9.76z" fill="#f43075"/><path d="m99.983 181.632h9.76v22.716h-9.76z" fill="#707070"/><circle cx="128" cy="171.171" fill="#f8af23" r="4.613"/><path d="m231.527 213.777h-70.294c-4.895 0-8.863-3.968-8.863-8.863v-111.6c0-4.895 3.968-8.863 8.863-8.863h70.294c4.895 0 8.863 3.968 8.863 8.863v111.601c0 4.894-3.968 8.862-8.863 8.862z" fill="#f8af23"/><path d="m231.527 84.45h-9.76c4.895 0 8.863 3.968 8.863 8.863v111.601c0 4.895-3.968 8.863-8.863 8.863h9.76c4.895 0 8.863-3.968 8.863-8.863v-111.6c0-4.895-3.968-8.864-8.863-8.864z" fill="#f8d323"/><path d="m229.794 204.348h-66.457c-.462 0-.836-.374-.836-.836v-108.42c0-.462.374-.836.836-.836h66.457c.462 0 .836.374.836.836v108.42c0 .462-.374.836-.836.836z" fill="#f46275"/><path d="m169.047 110.056h54.667v26.333h-54.667z" fill="#f8af23"/><g fill="#63bce7"><path d="m169.047 146.512h54.667v5.579h-54.667z"/><path d="m169.047 159.425h54.667v5.579h-54.667z"/><path d="m169.047 172.337h54.667v5.579h-54.667z"/><path d="m169.047 185.249h54.667v5.579h-54.667z"/></g><path d="m24.231 205.777c0 4.418 3.582 8 8 8h36.977c4.418 0 8-3.582 8-8v-3.919h-52.977z" fill="#f46275"/><path d="m77.208 129.201c0-4.418-3.582-8-8-8h-36.977c-4.418 0-8 3.582-8 8v3.919h52.977z" fill="#f46275"/><path d="m33.991 205.777v-3.919h-9.76v3.919c0 4.418 3.582 8 8 8h9.76c-4.419 0-8-3.582-8-8z" fill="#f43075"/><path d="m41.991 121.201h-9.76c-4.418 0-8 3.582-8 8v3.919h9.76v-3.919c0-4.418 3.581-8 8-8z" fill="#f43075"/><g fill="#f8af23"><path d="m31.333 140.404h20.167v23.668h-20.167z"/><path d="m31.333 170.906h20.167v23.668h-20.167z"/></g></g><g fill="#321f7a"><circle cx="50.471" cy="208.025" r="2.274"/><path d="m128 165.058c-3.371 0-6.113 2.742-6.113 6.113s2.742 6.113 6.113 6.113 6.113-2.742 6.113-6.113-2.742-6.113-6.113-6.113zm0 9.226c-1.717 0-3.113-1.396-3.113-3.113s1.396-3.113 3.113-3.113 3.113 1.396 3.113 3.113-1.396 3.113-3.113 3.113z"/><path d="m158.5 72.845c0 .829.671 1.5 1.5 1.5h56.333c.829 0 1.5-.671 1.5-1.5s-.671-1.5-1.5-1.5h-56.333c-.829 0-1.5.672-1.5 1.5z"/><path d="m36.875 40.592c-2.413 0-4.375 1.962-4.375 4.375s1.962 4.375 4.375 4.375 4.375-1.962 4.375-4.375-1.962-4.375-4.375-4.375zm0 5.75c-.758 0-1.375-.617-1.375-1.375s.617-1.375 1.375-1.375 1.375.617 1.375 1.375-.617 1.375-1.375 1.375z"/><path d="m52.209 40.592c-2.413 0-4.375 1.962-4.375 4.375s1.962 4.375 4.375 4.375 4.375-1.962 4.375-4.375-1.962-4.375-4.375-4.375zm0 5.75c-.758 0-1.375-.617-1.375-1.375s.617-1.375 1.375-1.375 1.375.617 1.375 1.375-.617 1.375-1.375 1.375z"/><path d="m67.542 40.592c-2.413 0-4.375 1.962-4.375 4.375s1.962 4.375 4.375 4.375 4.375-1.962 4.375-4.375-1.962-4.375-4.375-4.375zm0 5.75c-.758 0-1.375-.617-1.375-1.375s.617-1.375 1.375-1.375 1.375.617 1.375 1.375-.616 1.375-1.375 1.375z"/><path d="m199.75 44.967c0-.829-.671-1.5-1.5-1.5h-118.25c-.829 0-1.5.671-1.5 1.5s.671 1.5 1.5 1.5h118.25c.829 0 1.5-.671 1.5-1.5z"/><path d="m169.046 137.89h54.667c.829 0 1.5-.671 1.5-1.5v-26.333c0-.829-.671-1.5-1.5-1.5h-54.667c-.829 0-1.5.671-1.5 1.5v26.333c0 .828.672 1.5 1.5 1.5zm1.5-26.334h51.667v23.333h-51.667z"/><path d="m169.046 153.591h54.667c.829 0 1.5-.671 1.5-1.5v-5.579c0-.829-.671-1.5-1.5-1.5h-54.667c-.829 0-1.5.671-1.5 1.5v5.579c0 .829.672 1.5 1.5 1.5zm1.5-5.579h51.667v2.579h-51.667z"/><path d="m169.046 166.503h54.667c.829 0 1.5-.671 1.5-1.5v-5.579c0-.829-.671-1.5-1.5-1.5h-54.667c-.829 0-1.5.671-1.5 1.5v5.579c0 .829.672 1.5 1.5 1.5zm1.5-5.578h51.667v2.579h-51.667z"/><path d="m169.046 179.416h54.667c.829 0 1.5-.671 1.5-1.5v-5.579c0-.829-.671-1.5-1.5-1.5h-54.667c-.829 0-1.5.671-1.5 1.5v5.579c0 .829.672 1.5 1.5 1.5zm1.5-5.579h51.667v2.579h-51.667z"/><path d="m169.046 192.328h54.667c.829 0 1.5-.671 1.5-1.5v-5.579c0-.829-.671-1.5-1.5-1.5h-54.667c-.829 0-1.5.671-1.5 1.5v5.579c0 .829.672 1.5 1.5 1.5zm1.5-5.578h51.667v2.579h-51.667z"/><path d="m229.794 92.755h-66.458c-1.288 0-2.336 1.048-2.336 2.336v108.42c0 1.288 1.048 2.336 2.336 2.336h66.458c1.288 0 2.336-1.048 2.336-2.336v-108.419c0-1.288-1.048-2.337-2.336-2.337zm-.664 110.093h-65.13v-107.093h65.13z"/><path d="m31.333 165.572h20.167c.829 0 1.5-.671 1.5-1.5v-23.668c0-.829-.671-1.5-1.5-1.5h-20.167c-.829 0-1.5.671-1.5 1.5v23.668c0 .829.672 1.5 1.5 1.5zm1.5-23.668h17.167v20.668h-17.167z"/><path d="m31.333 196.074h20.167c.829 0 1.5-.671 1.5-1.5v-23.668c0-.829-.671-1.5-1.5-1.5h-20.167c-.829 0-1.5.671-1.5 1.5v23.668c0 .829.672 1.5 1.5 1.5zm1.5-23.668h17.167v20.668h-17.167z"/><path d="m58.636 141.904h11.864c.829 0 1.5-.671 1.5-1.5s-.671-1.5-1.5-1.5h-11.864c-.829 0-1.5.671-1.5 1.5s.672 1.5 1.5 1.5z"/><path d="m58.636 147.306h11.864c.829 0 1.5-.671 1.5-1.5s-.671-1.5-1.5-1.5h-11.864c-.829 0-1.5.671-1.5 1.5s.672 1.5 1.5 1.5z"/><path d="m58.636 152.708h11.864c.829 0 1.5-.671 1.5-1.5s-.671-1.5-1.5-1.5h-11.864c-.829 0-1.5.671-1.5 1.5s.672 1.5 1.5 1.5z"/><path d="m58.636 172.406h11.864c.829 0 1.5-.671 1.5-1.5s-.671-1.5-1.5-1.5h-11.864c-.829 0-1.5.671-1.5 1.5s.672 1.5 1.5 1.5z"/><path d="m58.636 177.769h11.864c.829 0 1.5-.671 1.5-1.5s-.671-1.5-1.5-1.5h-11.864c-.829 0-1.5.671-1.5 1.5s.672 1.5 1.5 1.5z"/><path d="m58.636 183.132h11.864c.829 0 1.5-.671 1.5-1.5s-.671-1.5-1.5-1.5h-11.864c-.829 0-1.5.671-1.5 1.5s.672 1.5 1.5 1.5z"/><path d="m42.803 128.66h15.833c.829 0 1.5-.671 1.5-1.5s-.671-1.5-1.5-1.5h-15.833c-.829 0-1.5.671-1.5 1.5s.671 1.5 1.5 1.5z"/><path d="m27.323 227.777h-18.003c-.829 0-1.5.671-1.5 1.5s.671 1.5 1.5 1.5h18.003c.829 0 1.5-.671 1.5-1.5s-.671-1.5-1.5-1.5z"/><path d="m246.68 227.777h-18.003c-.829 0-1.5.671-1.5 1.5s.671 1.5 1.5 1.5h18.003c.829 0 1.5-.671 1.5-1.5s-.671-1.5-1.5-1.5z"/><path d="m218.479 227.777h-180.958c-.829 0-1.5.671-1.5 1.5s.671 1.5 1.5 1.5h180.959c.829 0 1.5-.671 1.5-1.5s-.672-1.5-1.501-1.5z"/><path d="m88.847 215.277h72.386 70.294 15.153c.829 0 1.5-.671 1.5-1.5s-.671-1.5-1.5-1.5h-7.872c1.9-1.88 3.081-4.485 3.081-7.363v-37.291-74.31-52.582c0-8.552-6.957-15.509-15.508-15.509h-196.762c-8.551 0-15.508 6.957-15.508 15.509v126.892c0 5.858 3.377 11.273 8.621 13.885v20.35 3.919c0 2.515.989 4.799 2.591 6.5h-16.003c-.829 0-1.5.671-1.5 1.5s.671 1.5 1.5 1.5h22.911 36.977zm11.135-35.145h-21.274v-17.923h72.162v17.923zm50.888 3v19.716h-49.388v-19.716zm-20.203-60.431c.829 0 1.5-.671 1.5-1.5v-38.914h10.632v49.333h-64.091v-2.419c0-2.515-.989-4.799-2.591-6.5zm-61.459-3h-26.708v-49.333h86.667v49.333zm9.5 39.508v-24.59h65.591c.829 0 1.5-.671 1.5-1.5v-52.332c0-.829-.671-1.5-1.5-1.5h-12.132v-10.419c0-.829-.671-1.5-1.5-1.5h-89.667c-.829 0-1.5.671-1.5 1.5v50.833h-7.269c-2.515 0-4.799.989-6.5 2.591v-81.56c0-2.144 1.744-3.888 3.888-3.888h196.762c2.144 0 3.888 1.744 3.888 3.888v42.219h-69.036c-5.714 0-10.363 4.649-10.363 10.363v65.896h-72.162zm-46.477-36.508h8.769 28.208c3.584 0 6.5 2.916 6.5 6.5v2.419h-49.977v-2.419c0-3.584 2.916-6.5 6.5-6.5zm43.477 11.919v65.739h-49.977v-45.037-20.702zm3 71.157v-3.919-18.726h19.774v19.716h-9.635c-.829 0-1.5.671-1.5 1.5v7.929h-11.23c1.602-1.701 2.591-3.984 2.591-6.5zm11.639 6.5v-6.429h9.635 50.935c.225 2.505 1.342 4.755 3.034 6.429zm148.543-44.653v37.291c0 4.06-3.303 7.363-7.363 7.363h-70.294c-4.06 0-7.363-3.303-7.363-7.363v-111.602c0-4.06 3.303-7.363 7.363-7.363h70.294c4.06 0 7.363 3.303 7.363 7.363zm-216.159-126.893v88.469 3.919 22.202 22.737c-3.461-2.299-5.621-6.227-5.621-10.435v-126.892c0-6.897 5.611-12.509 12.508-12.509h196.763c6.897 0 12.508 5.611 12.508 12.509v45.3c-1.491-1.508-3.442-2.552-5.621-2.923v-42.377c0-3.798-3.09-6.888-6.888-6.888h-196.761c-3.798 0-6.888 3.09-6.888 6.888zm9.5 171.546c-3.584 0-6.5-2.916-6.5-6.5v-2.419h49.977v2.419c0 3.584-2.916 6.5-6.5 6.5z"/></g></g></svg>