<?xml version="1.0" encoding="iso-8859-1"?>
<!-- Generator: Adobe Illustrator 19.0.0, SVG Export Plug-In . SVG Version: 6.00 Build 0)  -->
<svg version="1.1" id="Capa_1" xmlns="http://www.w3.org/2000/svg" xmlns:xlink="http://www.w3.org/1999/xlink" x="0px" y="0px"
	 viewBox="0 0 480 480" style="enable-background:new 0 0 480 480;" xml:space="preserve">
<g>
	<g>
		<path d="M112,32c-3.144,0-6.224,0.232-9.272,0.584c-0.832,0.096-1.648,0.256-2.472,0.376c-2.264,0.336-4.504,0.752-6.704,1.272
			c-0.928,0.216-1.84,0.456-2.76,0.712c-2.128,0.584-4.216,1.264-6.272,2.024c-0.864,0.32-1.744,0.608-2.6,0.952
			c-2.704,1.104-5.352,2.312-7.896,3.688c-0.112,0.064-0.232,0.104-0.344,0.16c-0.008,0-0.008,0.008-0.008,0.008
			c-0.456,0.248-0.856,0.568-1.304,0.824c-2.08,1.192-4.104,2.456-6.064,3.824c-1.104,0.768-2.152,1.584-3.208,2.4
			c-1.256,0.976-2.488,1.992-3.688,3.04c-1.128,0.992-2.248,1.976-3.32,3.016c-1.064,1.04-2.064,2.152-3.064,3.256
			c-1.576,1.728-3.08,3.504-4.496,5.36c-1.096,1.432-2.192,2.872-3.192,4.376c-0.696,1.056-1.32,2.152-1.968,3.24
			c-0.968,1.624-1.888,3.272-2.744,4.96c-0.456,0.912-0.912,1.824-1.336,2.76c-1.088,2.376-2.056,4.8-2.912,7.288
			c-0.104,0.304-0.232,0.6-0.336,0.904c-2.048,6.208-3.312,12.752-3.768,19.52c0,0.048-0.016,0.096-0.016,0.144
			c0,0.024,0.008,0.04,0.008,0.064C32.152,108.496,32,110.224,32,112c0,44.112,35.888,80,80,80c7.232,0,14.208-1.048,20.872-2.856
			c0.056-0.016,0.104-0.008,0.16-0.024c0.112-0.032,0.208-0.072,0.32-0.104c1.824-0.504,3.616-1.08,5.392-1.712
			c0.464-0.168,0.928-0.336,1.384-0.504c1.672-0.632,3.328-1.304,4.944-2.04c0.504-0.232,1-0.48,1.504-0.728
			c1.584-0.76,3.152-1.536,4.672-2.4c0.32-0.184,0.624-0.392,0.944-0.576c3.352-1.96,6.56-4.128,9.576-6.536
			c0.112-0.088,0.232-0.168,0.344-0.256c1.176-0.944,2.288-1.96,3.408-2.976c0.624-0.56,1.256-1.112,1.864-1.688
			c1.04-1,2.032-2.04,3.016-3.096c0.6-0.648,1.2-1.288,1.776-1.952c0.952-1.088,1.88-2.2,2.776-3.344
			c0.52-0.664,1.008-1.336,1.504-2.016c0.888-1.208,1.768-2.424,2.592-3.68c0.36-0.552,0.688-1.136,1.032-1.696
			c2.688-4.352,4.952-8.976,6.776-13.824c0.352-0.944,0.72-1.888,1.04-2.848c0.4-1.192,0.744-2.408,1.088-3.624
			c0.328-1.176,0.64-2.352,0.912-3.544c0.256-1.112,0.496-2.216,0.712-3.344c0.272-1.464,0.488-2.944,0.68-4.432
			c0.12-0.92,0.264-1.824,0.344-2.752c0.224-2.456,0.368-4.936,0.368-7.448C192,67.888,156.112,32,112,32z M52.36,88.944
			c0.128-0.32,0.232-0.656,0.368-0.984c0.464-1.168,1.016-2.288,1.552-3.416c0.384-0.808,0.752-1.64,1.168-2.432
			c0.384-0.728,0.808-1.416,1.216-2.128c0.664-1.136,1.32-2.28,2.048-3.376c0.28-0.416,0.584-0.816,0.872-1.232
			c0.912-1.304,1.856-2.592,2.856-3.824c0.216-0.264,0.448-0.512,0.664-0.776c1.104-1.304,2.248-2.576,3.448-3.792
			c0.232-0.232,0.48-0.456,0.712-0.688c1.2-1.176,2.44-2.312,3.728-3.384c0.344-0.288,0.712-0.56,1.064-0.848
			c0.824-0.664,1.688-1.28,2.544-1.904l7.232,13.248L98,103.04l-48.76-3.256C49.952,96.048,51.024,92.432,52.36,88.944z M112,176
			c-34.016,0-61.848-26.704-63.808-60.24l57.592,3.84l15.192,55.696C118.032,175.712,115.056,176,112,176z M175.344,120.672
			c-0.088,0.632-0.184,1.264-0.288,1.888c-0.976,5.768-2.704,11.312-5.136,16.496c-0.16,0.344-0.328,0.688-0.496,1.024
			c-2.584,5.256-5.872,10.136-9.768,14.488c-0.232,0.256-0.456,0.512-0.688,0.76c-4.008,4.336-8.608,8.136-13.72,11.248
			c-0.216,0.136-0.432,0.264-0.656,0.4c-2.608,1.552-5.328,2.944-8.176,4.12l-16.688-61.2c-0.168-0.6-0.4-1.176-0.696-1.728
			L88.656,52.472c0.768-0.304,1.544-0.584,2.328-0.856c0.896-0.312,1.792-0.648,2.704-0.92c1-0.296,2.024-0.536,3.04-0.784
			c0.984-0.24,1.968-0.512,2.96-0.704c1.12-0.216,2.264-0.36,3.4-0.52c0.896-0.128,1.792-0.296,2.696-0.384
			C107.824,48.12,109.896,48,112,48c35.288,0,64,28.712,64,64C176,114.936,175.736,117.824,175.344,120.672z"/>
	</g>
</g>
<g>
	<g>
		<path d="M440,0H40C17.944,0,0,17.944,0,40v288v16c0,22.056,17.944,40,40,40h176v32h-64c-22.056,0-40,17.944-40,40v16
			c0,4.416,3.584,8,8,8h240c4.416,0,8-3.584,8-8v-16c0-22.056-17.944-40-40-40h-64v-32h176c22.056,0,40-17.944,40-40v-16V40
			C480,17.944,462.056,0,440,0z M328,432c13.232,0,24,10.768,24,24v8H128v-8c0-13.232,10.768-24,24-24h72h32H328z M232,416v-32h16
			v32H232z M464,344c0,13.232-10.768,24-24,24H256h-32H40c-13.232,0-24-10.768-24-24v-8h448V344z M464,320H16V40
			c0-13.232,10.768-24,24-24h400c13.232,0,24,10.768,24,24V320z"/>
	</g>
</g>
<g>
	<g>
		<path d="M224,288V32h-16v264c0,4.416,3.584,8,8,8h232v-16H224z"/>
	</g>
</g>
<g>
	<g>
		<path d="M184,208H40c-4.416,0-8,3.584-8,8v80c0,4.416,3.584,8,8,8h144c4.416,0,8-3.584,8-8v-80C192,211.584,188.416,208,184,208z
			 M176,288H48v-64h128V288z"/>
	</g>
</g>
<g>
	<g>
		<path d="M434.336,162.336l-29.28,29.272l-21.2-113.088c-0.68-3.64-3.768-6.336-7.464-6.512c-3.72-0.168-7.032,2.176-8.08,5.728
			l-39.248,133.456l-24.328,18.24l-27.096-27.096c-1.824-1.824-4.416-2.64-6.936-2.24c-2.536,0.416-4.72,2.016-5.872,4.32l-32,64
			l14.312,7.16l27.048-54.072l24.152,24.152c2.816,2.816,7.272,3.136,10.456,0.744l32-24c1.376-1.032,2.384-2.488,2.872-4.144
			l30.6-104.04l17.856,95.256c0.544,2.92,2.664,5.296,5.504,6.168c2.832,0.856,5.92,0.112,8.016-1.992l40-40L434.336,162.336z"/>
	</g>
</g>
<g>
</g>
<g>
</g>
<g>
</g>
<g>
</g>
<g>
</g>
<g>
</g>
<g>
</g>
<g>
</g>
<g>
</g>
<g>
</g>
<g>
</g>
<g>
</g>
<g>
</g>
<g>
</g>
<g>
</g>
</svg>
